<?xml version="1.0" encoding="iso-8859-1"?>
<!-- Generator: Adobe Illustrator 18.0.0, SVG Export Plug-In . SVG Version: 6.00 Build 0)  -->
<!DOCTYPE svg PUBLIC "-//W3C//DTD SVG 1.1//EN" "http://www.w3.org/Graphics/SVG/1.1/DTD/svg11.dtd">
<svg version="1.1" id="Capa_1" xmlns="http://www.w3.org/2000/svg" xmlns:xlink="http://www.w3.org/1999/xlink" x="0px" y="0px"
	 viewBox="0 0 442 442" style="enable-background:new 0 0 442 442;" xml:space="preserve">
<g>
	<path d="M262.85,191h111.76c5.523,0,10-4.477,10-10s-4.477-10-10-10H262.85c-5.523,0-10,4.477-10,10S257.327,191,262.85,191z"/>
	<path d="M262.85,231h111.76c5.523,0,10-4.477,10-10s-4.477-10-10-10H262.85c-5.523,0-10,4.477-10,10S257.327,231,262.85,231z"/>
	<path d="M262.85,271h111.76c5.523,0,10-4.477,10-10s-4.477-10-10-10H262.85c-5.523,0-10,4.477-10,10S257.327,271,262.85,271z"/>
	<path d="M427,77H15C6.716,77,0,83.716,0,92v258c0,8.284,6.716,15,15,15h412c8.284,0,15-6.716,15-15V92
		C442,83.716,435.284,77,427,77z M412,335H30V107h382V335z"/>
	<path d="M93.553,231.567C79.08,241.655,69.583,258.41,69.583,277.35V300c0,5.523,4.477,10,10,10h91.566c5.523,0,10-4.477,10-10
		v-22.65c0-18.94-9.497-35.695-23.97-45.783c14.473-10.088,23.97-26.843,23.97-45.783c0-30.759-25.024-55.784-55.783-55.784
		c-30.759,0-55.784,25.024-55.784,55.784C69.583,204.724,79.08,221.479,93.553,231.567z M161.15,277.35V290H89.583v-12.65
		c0-19.731,16.052-35.783,35.783-35.783S161.15,257.619,161.15,277.35z M125.367,150c19.731,0,35.783,16.053,35.783,35.784
		s-16.052,35.783-35.783,35.783s-35.784-16.052-35.784-35.783S105.636,150,125.367,150z"/>
</g>
<g>
</g>
<g>
</g>
<g>
</g>
<g>
</g>
<g>
</g>
<g>
</g>
<g>
</g>
<g>
</g>
<g>
</g>
<g>
</g>
<g>
</g>
<g>
</g>
<g>
</g>
<g>
</g>
<g>
</g>
</svg>
