<svg height="512pt" viewBox="0 -63 512 512" width="512pt" xmlns="http://www.w3.org/2000/svg"><path d="m496.207031 72.542969h-55.042969v-56.75c0-8.722657-7.070312-15.792969-15.792968-15.792969h-409.578125c-8.722657 0-15.792969 7.070312-15.792969 15.792969v282.753906c0 8.71875 7.070312 15.789063 15.792969 15.789063h55.042969v56.75c0 8.722656 7.070312 15.792968 15.792968 15.792968h409.578125c8.722657 0 15.792969-7.070312 15.792969-15.792968v-282.753907c0-8.71875-7.070312-15.789062-15.792969-15.789062zm-464.625-40.960938h377.996094v251.171875h-377.996094zm448.835938 323.714844h-377.996094v-40.960937h322.949219c8.722656 0 15.792968-7.070313 15.792968-15.789063v-194.421875h39.253907zm0 0"/><path d="m203.148438 157.167969v-86.070313c0-8.71875-7.070313-15.789062-15.792969-15.789062h-114.390625c-8.722656 0-15.792969 7.070312-15.792969 15.789062v86.070313c0 8.722656 7.070313 15.792969 15.792969 15.792969h114.390625c8.722656 0 15.792969-7.070313 15.792969-15.792969zm-31.582032-15.789063h-82.8125v-54.488281h82.8125zm0 0"/><path d="m269.5 254.988281h97.445312c8.722657 0 15.792969-7.070312 15.792969-15.792969 0-8.71875-7.070312-15.789062-15.792969-15.789062h-97.445312c-8.71875 0-15.789062 7.070312-15.789062 15.789062 0 8.722657 7.070312 15.792969 15.789062 15.792969zm0 0"/><path d="m269.5 204.953125h44.21875c8.71875 0 15.789062-7.070313 15.789062-15.792969 0-8.71875-7.070312-15.789062-15.789062-15.789062h-44.21875c-8.71875 0-15.789062 7.070312-15.789062 15.789062 0 8.722656 7.070312 15.792969 15.789062 15.792969zm0 0"/></svg>