<svg height="512pt" viewBox="0 0 512 512" width="512pt" xmlns="http://www.w3.org/2000/svg"><path d="m512 215.820312c0-30.417968-24.746094-55.164062-55.167969-55.164062h-17.082031l-52.441406-126.605469c-11.640625-28.097656-43.972656-41.488281-72.078125-29.851562-13.613281 5.636719-24.21875 16.242187-29.855469 29.855469-5.640625 13.613281-5.636719 28.609374.003906 42.222656l34.949219 84.378906h-128.652344l34.949219-84.378906c11.640625-28.105469-1.753906-60.4375-29.855469-72.078125-28.105469-11.640625-60.4375 1.753906-72.078125 29.855469l-52.441406 126.601562h-17.082031c-30.417969 0-55.167969 24.746094-55.167969 55.164062 0 25.816407 17.828125 47.539063 41.816406 53.527344l25.308594 189.808594c1.890625 14.195312 9.1875 27.488281 20.535156 37.421875 11.351563 9.9375 25.488282 15.410156 39.808594 15.410156h257.066406c14.320313 0 28.460938-5.472656 39.808594-15.410156 11.351562-9.933594 18.644531-23.226563 20.535156-37.421875l25.308594-189.8125c23.988281-5.984375 41.8125-27.707031 41.8125-53.523438zm-198.90625-151.023437c-2.574219-6.210937-2.574219-13.054687-.003906-19.265625 2.574218-6.207031 7.410156-11.042969 13.621094-13.617188 12.820312-5.308593 27.574218.800782 32.882812 13.621094l47.683594 115.121094h-54.476563zm-160.6875-19.261719c5.3125-12.820312 20.0625-18.929687 32.882812-13.621094 12.820313 5.308594 18.929688 20.0625 13.617188 32.882813l-39.703125 95.859375h-54.480469zm262.738281 409.65625c-1.9375 14.527344-15.953125 26.796875-30.609375 26.796875h-257.066406c-14.652344 0-28.671875-12.269531-30.605469-26.796875l-24.5625-184.203125h367.402344zm41.6875-214.203125h-401.664062c-13.878907 0-25.167969-11.289062-25.167969-25.167969 0-13.875 11.289062-25.164062 25.167969-25.164062h27.019531c.027344 0 .054688.003906.082031.003906.035157 0 .070313-.003906.105469-.003906h86.894531.105469 173.230469.148437 86.871094c.035156 0 .070312.003906.105469.003906.027343 0 .054687-.003906.082031-.003906h27.019531c13.875 0 25.167969 11.289062 25.167969 25.164062 0 13.878907-11.289062 25.167969-25.167969 25.167969zm0 0"/><path d="m256.003906 321.320312c-8.285156 0-15.003906 6.71875-15.003906 15v80.335938c0 8.285156 6.71875 15 15.003906 15 8.28125 0 15-6.714844 15-15v-80.335938c0-8.28125-6.71875-15-15-15zm0 0"/><path d="m336.335938 321.320312c-8.285157 0-15 6.71875-15 15v80.335938c0 8.285156 6.714843 15 15 15 8.285156 0 15-6.714844 15-15v-80.335938c0-8.28125-6.714844-15-15-15zm0 0"/><path d="m175.667969 321.320312c-8.285157 0-15 6.71875-15 15v80.335938c0 8.285156 6.714843 15 15 15 8.285156 0 15-6.714844 15-15v-80.335938c0-8.28125-6.714844-15-15-15zm0 0"/></svg>