<svg height="512pt" viewBox="-68 0 512 512" width="512pt" xmlns="http://www.w3.org/2000/svg"><path d="m232.910156 50.097656h-90.972656c-8.28125 0-15 6.714844-15 15s6.71875 15 15 15h90.972656c8.28125 0 15-6.714844 15-15s-6.71875-15-15-15zm0 0"/><path d="m252.3125 423.492188c51.082031-23.273438 87.730469-73.164063 92.355469-131.984376 17.621093-6.019531 30.332031-22.800781 30.332031-42.511718 0-19.523438-12.472656-36.179688-29.835938-42.339844v-147.179688c0-32.796874-26.683593-59.476562-59.476562-59.476562h-196.527344c-32.792968 0-59.476562 26.679688-59.476562 59.476562v147.234376c-17.28125 6.207031-29.683594 22.820312-29.683594 42.285156 0 19.710937 12.710938 36.492187 30.332031 42.511718 4.617188 58.75 41.1875 108.597657 92.179688 131.902344 5.199219 19.683594 2.847656 40.542969-6.65625 58.589844h-27.886719c-8.285156 0-15 6.714844-15 15s6.714844 15 15 15h198.910156c8.285156 0 15-6.714844 15-15s-6.714844-15-15-15h-27.894531c-9.488281-18.027344-11.84375-38.859375-6.671875-58.507812zm-222.3125-174.496094c0-8.210938 6.585938-14.886719 14.683594-14.886719h285.632812c8.097656 0 14.683594 6.679687 14.683594 14.886719 0 8.210937-6.585938 14.886718-14.683594 14.886718h-285.632812c-8.097656 0-14.683594-6.679687-14.683594-14.886718zm29.683594-189.519532c0-16.253906 13.222656-29.476562 29.476562-29.476562h196.527344c16.253906 0 29.476562 13.222656 29.476562 29.476562v144.632813h-255.480468zm1.015625 234.40625h253.601562c-5.492187 47.414063-36.671875 87.042969-79.101562 104.324219-.496094.167969-.980469.363281-1.457031.582031-14.34375 5.636719-29.941407 8.730469-46.242188 8.730469-65.359375 0-119.402344-49.746093-126.800781-113.636719zm87.882812 188.117188c5.5625-15.355469 7.65625-31.703125 6.175781-47.921875 10.5625 2.257813 21.519532 3.441406 32.742188 3.441406 11.167969 0 22.070312-1.171875 32.585938-3.40625-1.476563 16.207031.617187 32.542969 6.175781 47.886719zm0 0"/></svg>